<svg width="559" height="350" viewBox="0 0 559 350" fill="none" xmlns="http://www.w3.org/2000/svg">
<g clip-path="url(#clip0)">
<path d="M387.687 111.055H377.062C376.721 111.056 376.392 110.915 376.14 110.659C375.887 110.403 375.729 110.05 375.697 109.671L373.571 85.2998H391.179L389.052 109.671C389.02 110.05 388.862 110.403 388.61 110.659C388.357 110.915 388.028 111.056 387.687 111.055V111.055Z" fill="#E6E6E6"/>
<path d="M391.15 88.366H373.599C373.235 88.3655 372.886 88.2039 372.629 87.9165C372.372 87.6291 372.228 87.2394 372.227 86.833V83.1536C372.228 82.7472 372.372 82.3575 372.629 82.0701C372.886 81.7827 373.235 81.6211 373.599 81.6206H391.15C391.514 81.6211 391.862 81.7827 392.12 82.0701C392.377 82.3575 392.521 82.7472 392.522 83.1536V86.833C392.521 87.2394 392.377 87.629 392.12 87.9164C391.862 88.2038 391.514 88.3655 391.15 88.366V88.366Z" fill="#CCCCCC"/>
<path d="M263.376 84.8739H221.284V70.5882C234.585 60.2396 246.37 61.1391 261.873 71.4285L263.376 84.8739Z" fill="#6C63FF"/>
<path d="M211.537 338.62L202.322 338.619L200.944 298.881L211.539 298.882L211.537 338.62Z" fill="#FFB8B8"/>
<path d="M213.887 348.605L184.174 348.604V348.184C184.174 346.486 184.473 344.805 185.054 343.236C185.636 341.667 186.488 340.242 187.561 339.041C188.635 337.841 189.91 336.888 191.313 336.238C192.717 335.589 194.221 335.254 195.739 335.254H195.74L213.888 335.255L213.887 348.605Z" fill="#2F2E41"/>
<path d="M263.441 338.62L272.656 338.619L274.033 298.881L263.439 298.882L263.441 338.62Z" fill="#FFB8B8"/>
<path d="M261.09 335.255L279.238 335.254H279.239C280.757 335.254 282.261 335.589 283.664 336.238C285.068 336.888 286.343 337.841 287.416 339.041C288.49 340.242 289.342 341.667 289.923 343.236C290.505 344.805 290.804 346.486 290.804 348.184V348.604L261.091 348.605L261.09 335.255Z" fill="#2F2E41"/>
<path d="M263.683 333.526C262.914 333.523 262.169 333.229 261.569 332.691C260.969 332.153 260.55 331.404 260.38 330.566L237.54 219.188C237.49 218.905 237.352 218.651 237.151 218.471C236.95 218.29 236.698 218.195 236.44 218.202H236.434C236.175 218.197 235.923 218.294 235.722 218.477C235.521 218.66 235.384 218.916 235.337 219.201L214.362 329.827C214.199 330.673 213.781 331.432 213.18 331.977C212.578 332.522 211.828 332.821 211.053 332.824H201.062C200.601 332.824 200.145 332.719 199.722 332.515C199.298 332.31 198.917 332.012 198.601 331.636C198.284 331.261 198.04 330.818 197.883 330.334C197.725 329.849 197.658 329.334 197.685 328.819L205.127 188.605L208.122 187.614L208.178 187.615L267 188.19L279.528 328.251C279.572 328.75 279.526 329.255 279.394 329.734C279.262 330.214 279.045 330.659 278.757 331.044C278.469 331.429 278.115 331.746 277.716 331.977C277.318 332.207 276.882 332.347 276.434 332.387L263.954 333.514C263.863 333.522 263.773 333.526 263.683 333.526Z" fill="#2F2E41"/>
<path d="M239.392 59.2703C249.588 59.2703 257.853 50.0296 257.853 38.6307C257.853 27.2318 249.588 17.9912 239.392 17.9912C229.196 17.9912 220.931 27.2318 220.931 38.6307C220.931 50.0296 229.196 59.2703 239.392 59.2703Z" fill="#FFB8B8"/>
<path d="M228.082 203.978C224.844 204.023 221.618 203.515 218.516 202.473C215.757 201.543 213.198 199.991 210.995 197.914C208.793 195.836 206.994 193.277 205.709 190.393C205.302 189.526 205.212 188.515 205.457 187.574C207.493 179.805 217.332 139.422 211.055 107.32C210.169 102.86 210.095 98.2467 210.838 93.7546C211.581 89.2624 213.126 84.9836 215.381 81.1734C217.582 77.3931 220.443 74.1472 223.791 71.6295C227.139 69.1118 230.906 67.3738 234.868 66.5192L234.869 66.5184C235.91 66.2911 236.957 66.1048 237.98 65.9636C242.359 65.3609 246.804 65.8479 250.996 67.3898C255.187 68.9316 259.022 71.4902 262.226 74.8824C265.525 78.3412 268.1 82.5726 269.765 87.2738C271.43 91.975 272.145 97.0296 271.859 102.076L267.034 188.634C267.001 189.283 266.817 189.911 266.501 190.456C266.185 191.002 265.748 191.446 265.232 191.746C259.675 195.001 242.983 203.978 228.082 203.978Z" fill="#3F3D56"/>
<path d="M260.247 23.4384C258.329 18.0502 254.817 13.5604 250.295 10.7183C245.774 7.87626 240.518 6.85389 235.403 7.82188L241.224 13.0805C233.992 13.3528 226.379 12.7739 221.216 18.4413C222.86 18.3903 225.014 22.3214 226.658 22.2704C223.585 22.3384 220.798 24.7527 219.44 27.8361C218.183 31.004 217.889 34.5452 218.603 37.9177C219.21 41.2868 223.84 49.1796 225.087 52.3212C224.872 44.111 239.33 24.5276 246.39 26.5713C242.803 28.0592 239.69 30.7011 237.445 34.164C242.248 31.4541 247.68 30.4605 253.005 31.3177C254.22 31.6294 255.475 31.7079 256.714 31.5499C257.473 31.3819 258.182 30.999 258.771 30.4377C259.361 29.8765 259.812 29.1556 260.081 28.344C260.35 27.5324 260.429 26.6572 260.31 25.8019C260.19 24.9466 259.877 24.1399 259.399 23.4587L260.247 23.4384Z" fill="#2F2E41"/>
<path d="M226.811 198.781C226.344 198.779 225.883 198.671 225.456 198.461L190.429 181.368C189.685 181.012 189.081 180.367 188.729 179.552C188.376 178.737 188.299 177.807 188.51 176.934L211.698 79.0019C212.129 77.1796 212.881 75.4718 213.91 73.9784C214.939 72.485 216.223 71.2361 217.689 70.3046C219.155 69.3731 220.772 68.7779 222.446 68.5537C224.12 68.3295 225.817 68.4809 227.438 68.9991L236.71 71.9575L230.183 195.219C230.149 195.827 229.985 196.417 229.704 196.939C229.424 197.461 229.034 197.9 228.57 198.218C228.041 198.584 227.432 198.779 226.811 198.781V198.781Z" fill="#6C63FF"/>
<path d="M291.638 176.933L290.097 170.437L287.865 160.991L286.79 156.462L284.558 147.042L268.45 78.9999C268.02 77.1769 267.269 75.4681 266.241 73.974C265.212 72.4799 263.927 71.2304 262.461 70.2989C260.995 69.3675 259.378 68.7727 257.703 68.5497C256.029 68.3266 254.331 68.4796 252.71 68.9999L243.443 71.9579L248.035 158.655L248.509 167.706L248.809 173.412V173.42L249.29 182.42L249.967 195.218C250.022 196.179 250.401 197.081 251.027 197.742C251.653 198.403 252.48 198.775 253.342 198.781C253.807 198.778 254.268 198.67 254.695 198.462L289.721 181.37C290.466 181.013 291.07 180.367 291.422 179.552C291.774 178.737 291.851 177.806 291.638 176.933V176.933Z" fill="#6C63FF"/>
<path d="M286.79 156.462L248.509 167.706L248.035 158.655L284.558 147.042L286.79 156.462Z" fill="#CCCCCC"/>
<path d="M290.097 170.437L249.29 182.42L248.81 173.42V173.412L287.865 160.992L290.097 170.437Z" fill="#CCCCCC"/>
<path d="M231.642 160.605L231.168 169.487L193.624 156.983L195.826 147.689L231.642 160.605Z" fill="#CCCCCC"/>
<path d="M230.86 175.336L192.549 161.513L190.346 170.832L230.394 184.168L230.86 175.336Z" fill="#CCCCCC"/>
<path d="M193.217 184.625C194.359 184.292 195.422 183.683 196.331 182.84C197.24 181.998 197.972 180.943 198.477 179.75C198.982 178.557 199.246 177.255 199.252 175.935C199.258 174.616 199.005 173.311 198.511 172.112L216.522 108.897L203.75 105.907L187.238 167.884C185.492 168.946 184.154 170.686 183.48 172.776C182.805 174.866 182.839 177.16 183.576 179.224C184.313 181.287 185.702 182.977 187.478 183.972C189.255 184.968 191.297 185.2 193.217 184.625V184.625Z" fill="#FFB8B8"/>
<path d="M217.022 77.8202C220.689 78.2384 222.752 82.8483 221.84 88.5884L217.465 116.133C217.137 118.198 215.617 119.833 214.353 119.48L199.553 115.344C198.414 115.025 197.995 113.217 198.64 111.406L207.525 86.4876C209.455 81.076 213.466 77.4147 217.022 77.8202Z" fill="#3F3D56"/>
<path d="M239.324 4.74045e-10C245.572 0.000749231 251.574 2.72024 256.06 7.5826C260.546 12.445 263.163 19.0684 263.357 26.0504H267.886C268.285 26.0504 268.667 26.2275 268.949 26.5427C269.231 26.8579 269.389 27.2854 269.389 27.7311V34.4538C269.389 34.8995 269.231 35.327 268.949 35.6422C268.667 35.9574 268.285 36.1344 267.886 36.1345H216.774C216.376 36.1344 215.993 35.9574 215.711 35.6422C215.429 35.327 215.271 34.8995 215.271 34.4538V26.8907C215.271 23.3594 215.893 19.8626 217.102 16.6C218.311 13.3375 220.082 10.3731 222.316 7.87606C224.549 5.37902 227.201 3.39826 230.119 2.04688C233.037 0.695507 236.165 -2.0967e-05 239.324 4.74045e-10Z" fill="#6C63FF"/>
<path d="M242.198 166.222H231.573C231.232 166.224 230.903 166.082 230.65 165.826C230.398 165.57 230.24 165.218 230.208 164.839L228.081 140.467H245.689L243.563 164.838C243.531 165.218 243.373 165.57 243.12 165.826C242.868 166.082 242.539 166.224 242.198 166.222V166.222Z" fill="#E6E6E6"/>
<path d="M245.661 143.533H228.109C227.746 143.533 227.397 143.371 227.14 143.084C226.883 142.797 226.738 142.407 226.738 142V138.321C226.738 137.915 226.883 137.525 227.14 137.238C227.397 136.95 227.746 136.789 228.109 136.788H245.661C246.025 136.789 246.373 136.95 246.63 137.238C246.887 137.525 247.032 137.915 247.032 138.321V142C247.032 142.407 246.887 142.797 246.63 143.084C246.373 143.371 246.025 143.533 245.661 143.533V143.533Z" fill="#CCCCCC"/>
<path d="M237.113 153.153C237.526 153.206 237.935 153.296 238.336 153.421L266.632 126.291L264.978 116.337L278.089 111.583L282.549 128.887C282.909 130.285 282.854 131.775 282.392 133.135C281.93 134.495 281.086 135.651 279.986 136.429L244.15 161.782C244.175 163.573 243.712 165.331 242.822 166.82C241.933 168.31 240.658 169.462 239.169 170.122C237.68 170.782 236.046 170.92 234.484 170.517C232.923 170.114 231.509 169.189 230.43 167.865C229.35 166.541 228.657 164.881 228.442 163.106C228.227 161.331 228.5 159.525 229.226 157.928C229.951 156.33 231.095 155.018 232.504 154.165C233.913 153.312 235.52 152.959 237.113 153.153V153.153Z" fill="#FFB8B8"/>
<path d="M266.706 80.0952C270.623 78.8692 274.537 82.2026 275.849 87.8817L282.143 115.134C282.614 117.177 281.698 119.348 280.267 119.578L263.5 122.274C262.21 122.482 261.073 121.002 261.026 119.054L260.375 92.2366C260.234 86.4126 262.908 81.2838 266.706 80.0952Z" fill="#3F3D56"/>
<path d="M492.073 254.176C484.353 242.696 478.251 229.963 473.977 216.419C473.729 215.609 473.747 214.726 474.027 213.929C474.306 213.132 474.83 212.472 475.504 212.066L501.921 196.241C502.348 195.983 502.823 195.838 503.308 195.816C503.793 195.794 504.277 195.896 504.721 196.114C505.174 196.334 505.576 196.667 505.897 197.087C506.217 197.507 506.448 198.003 506.571 198.538C509.646 211.59 515.426 223.649 523.442 233.74C523.772 234.151 524.014 234.64 524.149 235.171C524.285 235.702 524.31 236.261 524.223 236.804C524.139 237.339 523.947 237.846 523.662 238.285C523.377 238.725 523.006 239.086 522.577 239.341L496.16 255.166C495.485 255.568 494.703 255.69 493.955 255.509C493.206 255.328 492.539 254.856 492.073 254.176V254.176Z" fill="#CCCCCC"/>
<path d="M493.876 252.662C494.018 252.86 494.218 252.997 494.44 253.048C494.663 253.1 494.894 253.063 495.095 252.944L521.512 237.119C521.64 237.044 521.751 236.937 521.836 236.806C521.922 236.675 521.978 236.524 522.003 236.365C522.03 236.196 522.022 236.023 521.98 235.859C521.938 235.694 521.862 235.543 521.758 235.417C513.505 225.028 507.555 212.614 504.39 199.177C504.353 199.011 504.283 198.857 504.184 198.727C504.085 198.596 503.961 198.493 503.82 198.425C503.688 198.359 503.544 198.328 503.399 198.335C503.254 198.342 503.113 198.386 502.986 198.464L476.569 214.289C476.369 214.41 476.213 214.605 476.128 214.841C476.043 215.076 476.034 215.338 476.104 215.58C480.301 228.882 486.294 241.388 493.876 252.662V252.662Z" fill="white"/>
<path d="M500.93 209.084L498.14 210.58C497.397 210.978 497.234 211.572 497.651 212.352L499.888 216.523C499.942 216.625 500.026 216.661 500.135 216.603C500.538 216.387 500.673 215.855 500.437 215.415L499.825 214.273C499.751 214.135 499.793 213.968 499.92 213.9C499.92 213.9 502.817 212.49 503.007 212.512L503.511 211.975C503.721 211.863 503.792 211.585 503.669 211.355L502.77 209.678C502.318 208.836 501.744 208.648 500.93 209.084ZM501.932 210.954C502.177 211.411 501.811 211.631 501.314 211.897L500.401 212.387C500.357 212.411 500.313 212.432 500.27 212.452C500.044 212.558 499.1 212.278 498.983 212.033C498.793 211.678 498.822 211.541 499.218 211.329L500.905 210.425C501.403 210.158 501.548 210.202 501.793 210.658L501.932 210.954Z" fill="#FF0000"/>
<path d="M502.377 211.126L499.588 212.621C498.27 213.327 498.47 213.22 499.099 214.393C499.099 214.393 500.192 216.322 500.168 216.485C500.144 216.648 500.222 216.556 500.27 216.53L503.902 214.583C504.255 214.394 504.259 214.392 504.534 214.244C504.978 214.006 505.128 213.419 504.868 212.933L504.218 211.72C503.422 210.236 503.747 210.391 502.377 211.126ZM503.38 212.995C503.625 213.452 503.259 213.672 502.762 213.939L501.849 214.428C501.804 214.452 501.761 214.473 501.718 214.494C501.492 214.599 500.548 214.32 500.431 214.074C500.241 213.72 500.27 213.583 500.666 213.37L502.353 212.466C502.851 212.199 502.996 212.243 503.241 212.699L503.38 212.995Z" fill="#FF0000"/>
<path d="M498.293 215.581C498.846 216.613 498.733 217.264 497.876 217.723L495.753 218.861C494.904 219.316 494.291 219.055 493.738 218.023L492.398 215.525C491.846 214.494 491.967 213.838 492.816 213.383L494.939 212.245C495.796 211.786 496.401 212.052 496.954 213.083L498.293 215.581ZM495.966 214.121C495.675 213.579 495.538 213.519 495.032 213.79L494.06 214.311C493.546 214.587 493.52 214.735 493.81 215.277L494.726 216.985C495.016 217.526 495.154 217.587 495.668 217.311L496.64 216.79C497.146 216.519 497.172 216.37 496.881 215.829L495.966 214.121Z" fill="#FF0000"/>
<path d="M485.136 218.189L485.877 219.57L487.675 222.924C487.756 223.075 487.753 223.19 487.637 223.252L486.76 223.722C486.644 223.784 486.54 223.727 486.459 223.576L483.172 217.445C483.091 217.294 483.101 217.174 483.217 217.112L483.953 216.718C484.061 216.66 484.306 216.639 484.386 216.79L484.884 217.718L484.558 217.109L484.984 217.905L485.059 218.045L485.136 218.189Z" fill="#FF0000"/>
<path d="M483.509 215.261C483.759 215.727 483.712 216.237 483.406 216.401C483.099 216.565 482.649 216.321 482.399 215.856C482.15 215.391 482.196 214.881 482.503 214.716C482.809 214.552 483.26 214.796 483.509 215.261Z" fill="#FF0000"/>
<path d="M490.163 221.899L491.943 220.945C492.832 220.467 492.988 219.659 492.402 218.566L489.32 212.817C489.308 212.789 489.291 212.763 489.27 212.742C489.25 212.72 489.226 212.703 489.201 212.692C489.176 212.681 489.15 212.676 489.126 212.678C489.101 212.68 489.078 212.687 489.059 212.701L488.185 213.17C488.078 213.227 488.06 213.331 488.128 213.456L489.5 216.016C489.807 216.589 490.241 217.398 490.241 217.398L491.122 219.041C491.407 219.572 491.368 219.794 490.878 220.056L489.85 220.608C489.67 220.704 489.535 220.669 489.424 220.461L489.396 220.409C489.323 220.274 489.227 220.231 489.113 220.292L488.28 220.739C488.256 220.747 488.236 220.762 488.22 220.783C488.204 220.803 488.193 220.828 488.188 220.856C488.183 220.884 488.184 220.915 488.191 220.945C488.198 220.976 488.21 221.005 488.227 221.032L488.283 221.136C488.808 222.116 489.363 222.327 490.163 221.899Z" fill="#FF0000"/>
<path d="M475.173 220.647C474.18 219.933 473.339 218.984 472.71 217.868C472.081 216.751 471.678 215.494 471.53 214.184C471.382 212.875 471.493 211.545 471.855 210.289C472.216 209.033 472.82 207.88 473.623 206.913L467.555 110.646L485.033 112.541L485.513 206.816C486.877 208.432 487.664 210.551 487.724 212.772C487.784 214.993 487.113 217.161 485.838 218.866C484.564 220.571 482.774 221.694 480.808 222.022C478.843 222.35 476.837 221.861 475.173 220.647L475.173 220.647Z" fill="#A0616A"/>
<path d="M471.512 142.993C471.102 142.664 470.764 142.237 470.523 141.742C470.281 141.247 470.141 140.698 470.115 140.136L468.834 114.189C468.707 111.619 469.436 109.087 470.88 107.081C472.325 105.076 474.382 103.74 476.655 103.33C478.929 102.92 481.257 103.465 483.192 104.861C485.127 106.257 486.531 108.405 487.134 110.889L492.76 134.087C492.993 135.055 492.874 136.087 492.428 136.957C491.982 137.826 491.245 138.463 490.38 138.726L474.377 143.577C473.891 143.725 473.381 143.75 472.885 143.649C472.389 143.548 471.92 143.324 471.512 142.993V142.993Z" fill="#3F3D56"/>
<path d="M441.723 338.998H432.508L428.124 299.26H441.724L441.723 338.998Z" fill="#A0616A"/>
<path d="M425.926 336.054H443.697V348.564H414.736C414.736 346.921 415.026 345.295 415.588 343.777C416.15 342.259 416.974 340.88 418.013 339.718C419.053 338.557 420.286 337.635 421.644 337.006C423.001 336.378 424.456 336.054 425.926 336.054V336.054Z" fill="#2F2E41"/>
<path d="M476.298 338.998H467.083L462.7 299.26H476.3L476.298 338.998Z" fill="#A0616A"/>
<path d="M460.501 336.054H478.273V348.564H449.312C449.312 346.921 449.601 345.295 450.163 343.777C450.726 342.259 451.55 340.88 452.589 339.718C453.628 338.557 454.862 337.635 456.219 337.006C457.577 336.378 459.032 336.054 460.501 336.054Z" fill="#2F2E41"/>
<path d="M441.288 318.979L431.143 318.439C430.279 318.393 429.463 317.978 428.864 317.281C428.265 316.583 427.928 315.655 427.922 314.688C425.247 268.538 421.543 219.052 427.214 199.935C427.21 199.39 427.312 198.851 427.513 198.354C427.713 197.858 428.007 197.415 428.374 197.057C428.741 196.7 429.173 196.435 429.641 196.281C430.108 196.127 430.6 196.087 431.082 196.166L471.666 202.752C472.468 202.878 473.202 203.322 473.734 204.005C474.267 204.687 474.561 205.561 474.562 206.466C479.744 229.102 479.978 270.149 479.782 312.797C479.785 313.296 479.701 313.791 479.532 314.253C479.364 314.715 479.115 315.136 478.801 315.49C478.486 315.844 478.112 316.125 477.7 316.317C477.288 316.509 476.846 316.608 476.4 316.608H465.463C464.656 316.611 463.875 316.291 463.262 315.705C462.649 315.118 462.244 314.305 462.122 313.414L455.375 265.458C455.276 264.756 454.954 264.118 454.467 263.662C453.98 263.205 453.362 262.961 452.727 262.974C452.092 262.987 451.482 263.257 451.011 263.733C450.54 264.209 450.239 264.86 450.164 265.566L444.807 315.652C444.706 316.569 444.309 317.414 443.691 318.028C443.073 318.641 442.275 318.981 441.448 318.984C441.395 318.984 441.341 318.983 441.288 318.979Z" fill="#2F2E41"/>
<path d="M448.429 206.471C439.485 200.915 432.496 199.456 429.127 199.08C428.679 199.031 428.245 198.882 427.85 198.64C427.456 198.399 427.109 198.07 426.832 197.674C426.548 197.275 426.34 196.816 426.219 196.325C426.099 195.834 426.069 195.32 426.132 194.816L435.856 114.101C436.416 109.379 438.047 104.895 440.595 101.077C443.142 97.2592 446.522 94.2335 450.411 92.2881C454.175 90.3533 458.32 89.5277 462.45 89.8897C466.581 90.2516 470.56 91.7892 474.009 94.3561C474.342 94.6039 474.669 94.8569 474.99 95.1152C478.962 98.3687 481.983 102.864 483.673 108.034C485.364 113.204 485.647 118.818 484.488 124.168C478.525 151.441 476.476 196.153 476.126 204.84C476.099 205.58 475.876 206.295 475.486 206.894C475.095 207.493 474.555 207.949 473.933 208.205C470.264 209.696 466.392 210.467 462.489 210.483C457.572 210.517 452.73 209.135 448.429 206.471Z" fill="#3F3D56"/>
<path d="M456.563 81.3284C466.759 81.3284 475.024 72.0877 475.024 60.6888C475.024 49.2899 466.759 40.0493 456.563 40.0493C446.367 40.0493 438.102 49.2899 438.102 60.6888C438.102 72.0877 446.367 81.3284 456.563 81.3284Z" fill="#A0616A"/>
<path d="M469.627 77.0179C466.183 81.1194 459.787 78.9176 459.338 73.3144C459.303 72.8793 459.305 72.4415 459.346 72.0071C459.577 69.5251 460.86 67.2718 460.553 64.6511C460.483 63.9989 460.266 63.3773 459.921 62.8453C457.177 58.7366 450.735 64.683 448.144 60.9635C446.556 58.6829 448.423 55.092 447.204 52.5429C445.596 49.1786 440.831 50.8382 437.843 48.9957C434.519 46.9457 434.718 41.2434 436.906 37.775C439.575 33.5451 444.254 31.288 448.875 30.9627C453.496 30.6374 458.085 32.0339 462.399 33.9135C467.3 36.0491 472.161 39.0005 475.177 43.819C478.845 49.6788 479.198 57.5568 477.364 64.4087C476.248 68.5768 472.439 73.6686 469.627 77.0179Z" fill="#2F2E41"/>
<path d="M484.247 97.0842C483.923 95.3867 481.15 93.0674 477.181 91.1766C470.802 88.288 463.903 87.1249 457.046 87.782C450.188 88.4391 443.567 90.8979 437.72 94.9581C437.312 94.9826 436.923 95.1563 436.612 95.4524C436.301 95.7484 436.086 96.1505 435.999 96.5968L422.649 162.605L420.913 171.202L419.763 176.891L418.027 185.462L417.102 190.042C417.043 190.335 417.041 190.638 417.095 190.932C417.149 191.226 417.259 191.504 417.417 191.747C417.575 191.989 417.778 192.191 418.011 192.339C418.245 192.488 418.504 192.578 418.771 192.605L476.415 198.168C476.467 198.168 476.527 198.177 476.58 198.177C477.056 198.173 477.512 197.969 477.858 197.604C478.204 197.239 478.413 196.741 478.444 196.21L478.993 186.874L479.579 176.891L479.835 172.563L480.413 162.605L484.254 97.1934V97.1346L484.247 97.0842Z" fill="#6C63FF"/>
<path d="M389.664 101.239C389.756 101.693 389.816 102.153 389.844 102.617L422.132 123.443L429.981 118.391L438.347 130.637L421.558 144.016L384.721 111.526C383.219 112.147 381.583 112.243 380.031 111.8C378.479 111.356 377.084 110.395 376.032 109.044C374.981 107.693 374.322 106.016 374.143 104.236C373.965 102.456 374.275 100.658 375.033 99.0803C375.792 97.5025 376.961 96.2202 378.387 95.4038C379.813 94.5873 381.427 94.2756 383.016 94.5099C384.604 94.7443 386.091 95.5136 387.278 96.7157C388.466 97.9177 389.298 99.4955 389.664 101.239H389.664Z" fill="#A0616A"/>
<path d="M423.286 121.671C423.232 121.111 423.291 120.544 423.459 120.013C423.628 119.481 423.9 118.999 424.258 118.601L440.691 100.224C442.319 98.4039 444.493 97.3218 446.792 97.1867C449.092 97.0517 451.355 97.8733 453.145 99.4931C454.935 101.113 456.125 103.416 456.485 105.959C456.846 108.502 456.352 111.104 455.099 113.263L443.396 133.425C442.906 134.265 442.139 134.854 441.262 135.063C440.385 135.272 439.47 135.083 438.717 134.538L424.808 124.447C424.385 124.141 424.028 123.733 423.765 123.253C423.501 122.772 423.338 122.232 423.286 121.671Z" fill="#3F3D56"/>
<path d="M480.413 162.605L479.834 172.563L420.913 171.202L422.649 162.605H480.413Z" fill="#CCCCCC"/>
<path d="M479.579 176.891L478.992 186.874L418.027 185.462L419.764 176.891H479.579Z" fill="#CCCCCC"/>
<path d="M456.924 20.5884C450.676 20.5891 444.674 23.3086 440.188 28.171C435.702 33.0334 433.085 39.6568 432.891 46.6388H428.362C427.963 46.6388 427.581 46.8159 427.299 47.1311C427.017 47.4463 426.859 47.8737 426.859 48.3195V55.0422C426.859 55.4879 427.017 55.9154 427.299 56.2305C427.581 56.5457 427.963 56.7228 428.362 56.7228H479.474C479.872 56.7228 480.255 56.5457 480.537 56.2305C480.819 55.9154 480.977 55.4879 480.977 55.0422V47.4791C480.977 43.9477 480.355 40.451 479.146 37.1884C477.937 33.9259 476.166 30.9615 473.932 28.4644C471.699 25.9674 469.047 23.9866 466.129 22.6353C463.211 21.2839 460.083 20.5884 456.924 20.5884V20.5884Z" fill="#6C63FF"/>
<path d="M81.2635 288.282C76.5064 290.152 71.3989 290.62 66.4329 289.642C61.467 288.664 56.81 286.273 52.9107 282.698C42.98 273.38 39.8664 258.027 37.333 243.812L29.8397 201.765L45.5277 213.842C56.8096 222.527 68.3456 231.49 76.1572 244.07C83.9687 256.65 87.3785 273.822 81.1021 287.434" fill="#E6E6E6"/>
<path d="M79.9225 339.189C81.5103 326.258 83.143 313.161 82.0292 300.092C81.0401 288.485 77.8727 277.148 71.4244 267.853C68.0017 262.929 63.8368 258.709 59.1171 255.385C57.8864 254.516 56.7537 256.697 57.979 257.562C66.1455 263.332 72.4619 271.852 76.0177 281.895C79.9449 293.062 80.5756 305.236 79.8988 317.099C79.4895 324.273 78.6222 331.4 77.7481 338.518C77.6792 338.84 77.7222 339.179 77.8683 339.467C78.0145 339.755 78.253 339.97 78.5356 340.069C78.8238 340.156 79.1311 340.112 79.3908 339.947C79.6504 339.783 79.8415 339.51 79.9225 339.189V339.189Z" fill="#F2F2F2"/>
<path d="M64.6287 316.307C62.5885 319.774 59.7841 322.595 56.4856 324.498C53.1872 326.402 49.5059 327.323 45.7965 327.174C36.2633 326.668 28.3156 319.23 21.1612 312.167L0 291.279L14.0052 290.53C24.077 289.991 34.4085 289.488 44.0015 292.961C53.5945 296.433 62.4416 304.79 64.1958 315.891" fill="#E6E6E6"/>
<path d="M84.4098 346.622C76.7673 331.503 67.9027 314.701 52.0631 309.33C47.6589 307.842 43.0408 307.309 38.4575 307.76C37.013 307.899 37.3737 310.388 38.8156 310.249C46.4982 309.536 54.1659 311.804 60.5279 316.671C66.65 321.33 71.4167 327.807 75.4512 334.676C77.9224 338.883 80.136 343.269 82.35 347.649C83.0575 349.048 85.1256 348.038 84.4098 346.622V346.622Z" fill="#F2F2F2"/>
<path d="M558.248 350H23.0782C22.8788 350 22.6877 349.911 22.5467 349.754C22.4057 349.596 22.3265 349.383 22.3265 349.16C22.3265 348.937 22.4057 348.723 22.5467 348.565C22.6877 348.408 22.8788 348.319 23.0782 348.319H558.248C558.448 348.319 558.639 348.408 558.78 348.565C558.921 348.723 559 348.937 559 349.16C559 349.383 558.921 349.596 558.78 349.754C558.639 349.911 558.448 350 558.248 350Z" fill="#CCCCCC"/>
<path opacity="0.1" d="M513.122 240.224C513.122 240.507 512.523 240.772 511.477 241H491.695C490.815 241.003 489.95 240.627 489.188 239.91L489.177 239.9C489.477 239.721 490.02 239.555 490.758 239.405L490.791 239.399C491.122 239.333 491.492 239.27 491.897 239.211C491.907 239.211 491.917 239.209 491.928 239.207C492.249 239.16 492.59 239.117 492.952 239.076C492.963 239.076 492.974 239.073 492.986 239.072C493.126 239.056 493.268 239.04 493.413 239.026L493.469 239.02C494.528 238.913 495.731 238.828 497.035 238.771H497.037C497.22 238.763 497.404 238.756 497.591 238.75C497.798 238.742 498.008 238.734 498.221 238.728C498.383 238.723 498.547 238.718 498.712 238.714H498.716C499.46 238.696 500.228 238.687 501.013 238.687C502.956 238.687 504.792 238.745 506.418 238.848H506.423C506.673 238.864 506.919 238.881 507.158 238.899L507.362 238.915C507.632 238.936 507.895 238.958 508.151 238.982C511.165 239.261 513.122 239.714 513.122 240.224Z" fill="#6C63FF"/>
<g opacity="0.2">
<path opacity="0.2" d="M503.327 238.496C503.326 238.541 503.323 238.586 503.318 238.629C503.14 238.584 502.962 238.542 502.783 238.505C502.783 238.494 502.783 238.482 502.783 238.47C502.784 238.345 502.806 238.224 502.846 238.118C502.899 237.983 502.979 237.899 503.066 237.903C503.154 237.908 503.23 238 503.278 238.14C503.313 238.25 503.33 238.373 503.327 238.496V238.496Z" fill="#3F3D56"/>
<path opacity="0.2" d="M503.342 237.789C503.348 237.469 503.231 237.203 503.081 237.196C502.93 237.188 502.803 237.441 502.797 237.761C502.791 238.082 502.908 238.348 503.058 238.355C503.208 238.363 503.335 238.11 503.342 237.789Z" fill="#3F3D56"/>
<path opacity="0.2" d="M503.356 237.08C503.362 236.76 503.245 236.494 503.094 236.487C502.944 236.479 502.817 236.732 502.811 237.052C502.805 237.373 502.922 237.639 503.072 237.646C503.222 237.654 503.349 237.401 503.356 237.08Z" fill="#3F3D56"/>
<path opacity="0.2" d="M503.369 236.371C503.375 236.051 503.259 235.785 503.108 235.778C502.958 235.77 502.831 236.023 502.824 236.343C502.818 236.664 502.935 236.93 503.086 236.937C503.236 236.945 503.363 236.692 503.369 236.371Z" fill="#3F3D56"/>
<path opacity="0.2" d="M503.383 235.662C503.389 235.342 503.272 235.076 503.122 235.069C502.971 235.061 502.844 235.314 502.838 235.634C502.832 235.955 502.949 236.221 503.099 236.228C503.25 236.236 503.377 235.983 503.383 235.662Z" fill="#3F3D56"/>
<path opacity="0.2" d="M502.184 230.744C502.148 230.665 502.115 230.582 502.087 230.495L502.807 230.341L502.032 230.311C501.963 230.044 501.928 229.757 501.929 229.468C501.93 229.179 501.968 228.893 502.04 228.628L503.061 229.557L502.125 228.363C502.22 228.115 502.345 227.901 502.492 227.735C502.64 227.568 502.807 227.453 502.983 227.397C503.159 227.34 503.341 227.343 503.516 227.406C503.692 227.468 503.857 227.589 504.003 227.76C504.148 227.931 504.27 228.15 504.361 228.401C504.453 228.652 504.511 228.932 504.533 229.221C504.555 229.511 504.54 229.805 504.488 230.085C504.437 230.365 504.351 230.625 504.235 230.848C504.291 230.971 504.339 231.103 504.377 231.242L503.432 231.98L504.434 231.49C504.497 231.828 504.507 232.187 504.463 232.533C504.42 232.88 504.324 233.203 504.184 233.474C504.329 233.794 504.416 234.175 504.435 234.573C504.453 234.97 504.403 235.368 504.289 235.721C504.175 236.074 504.002 236.367 503.79 236.568C503.578 236.769 503.336 236.868 503.091 236.856C502.846 236.843 502.608 236.719 502.405 236.497C502.201 236.275 502.04 235.964 501.94 235.6C501.84 235.237 501.805 234.834 501.839 234.44C501.873 234.045 501.974 233.674 502.132 233.368C501.958 232.985 501.869 232.518 501.878 232.042C501.887 231.566 501.994 231.109 502.183 230.744H502.184Z" fill="#6C63FF"/>
<path opacity="0.1" d="M504.489 232.177C504.48 232.653 504.373 233.11 504.184 233.474C504.329 233.795 504.416 234.176 504.435 234.573C504.453 234.971 504.403 235.369 504.289 235.722C504.175 236.074 504.002 236.368 503.79 236.569C503.578 236.769 503.336 236.869 503.091 236.857C502.846 236.844 502.608 236.72 502.405 236.498C502.201 236.276 502.04 235.965 501.94 235.601C501.84 235.237 501.805 234.835 501.839 234.44C501.873 234.046 501.974 233.674 502.132 233.369C501.964 232.999 504.494 231.938 504.489 232.177Z" fill="black"/>
</g>
<path d="M490.02 239.024L490.287 239.023H490.663L491.14 226.443L495.857 213.647L495.652 213.289V212.383L490.55 226.147L490.02 239.024Z" fill="#F1C0C0"/>
<path opacity="0.1" d="M490.315 239.022H490.664L491.14 226.443L495.857 213.646L495.652 213.288L490.786 226.251L490.315 239.022Z" fill="black"/>
<path d="M489.233 239.127L501.455 240.648L501.465 240.649L513.294 239.466L513.302 239.465V238.653L500.269 238.265L489.395 238.248H489.316L489.307 238.339L489.233 239.127Z" fill="#F1C0C0"/>
<path opacity="0.1" d="M489.233 239.127L501.455 240.648L501.465 240.649L513.294 239.466L513.302 239.451V238.67H513.292L501.455 239.313L489.395 238.248H489.394L489.372 238.27L489.307 238.339L489.233 239.127Z" fill="black"/>
<path opacity="0.1" d="M489.233 239.128L501.455 240.648V239.314L489.372 238.271L489.307 238.339L489.233 239.128Z" fill="black"/>
<path d="M495.65 213.271L501.039 222.674L500.872 239.213L501.33 239.302L501.338 239.304H501.795L501.85 223.384L511.94 228.863L512.11 238.619L512.478 238.686L512.603 238.709L512.314 228.186L501.767 222.166L495.983 212.392H495.65V213.271Z" fill="#F1C0C0"/>
<path opacity="0.1" d="M501.809 223.079L501.85 223.383L511.94 228.863L512.11 238.619L512.478 238.686L512.189 228.66L501.809 223.079Z" fill="black"/>
<path opacity="0.1" d="M495.65 213.271L501.039 222.674L500.872 239.213L501.33 239.302L501.455 222.132L495.65 212.392V213.271Z" fill="black"/>
<path d="M501.828 229.717L505.529 230.901L505.53 230.902L512.011 232.978L512.308 232.784L512.307 232.75L512.288 232.078L501.832 228.643L501.828 229.717Z" fill="#F1C0C0"/>
<path opacity="0.1" d="M505.53 230.901L512.012 232.977L512.308 232.784L512.307 232.75L505.53 230.901Z" fill="black"/>
<path d="M505.778 225.517L505.878 234.475L505.93 239.071L506.385 239.046L506.672 239.031L506.583 225.646L506.385 225.539L506.342 225.517H505.778Z" fill="#F1C0C0"/>
<path opacity="0.1" d="M505.782 225.514V225.516L505.878 234.474L505.929 239.07L506.385 239.045V225.514H505.782Z" fill="black"/>
<path d="M501 225.826V226.234L496.704 227.596L496.481 227.815H495.712V227.586L499.933 225.928L501 225.826Z" fill="#F1C0C0"/>
<path opacity="0.1" d="M501 226.234L496.704 227.597L496.481 227.816H495.712L499.965 226.337L501 226.234Z" fill="black"/>
<path opacity="0.2" d="M501 225.826V226.234L499.965 226.336L499.933 225.928L501 225.826Z" fill="black"/>
<path opacity="0.1" d="M496.352 226.006C496.346 225.931 496.343 225.845 496.375 225.792C496.377 225.788 496.379 225.786 496.381 225.784C496.384 225.782 496.386 225.782 496.389 225.782C496.391 225.783 496.393 225.785 496.395 225.787C496.397 225.79 496.398 225.793 496.399 225.797C496.418 225.845 496.434 225.896 496.447 225.949C496.428 225.942 496.408 225.944 496.39 225.956C496.372 225.967 496.356 225.987 496.345 226.013" fill="black"/>
<path opacity="0.1" d="M496.947 225.796L496.938 225.648C496.937 225.636 496.937 225.623 496.94 225.611C496.944 225.602 496.95 225.595 496.957 225.592C496.964 225.588 496.971 225.59 496.977 225.595C496.99 225.606 497 225.623 497.007 225.643C497.028 225.696 497.046 225.753 497.059 225.812C497.018 225.799 496.976 225.8 496.935 225.814" fill="black"/>
<path opacity="0.1" d="M497.175 231.796V232.134L497 232.153H496.077V231.796H497.175Z" fill="black"/>
<path d="M497.175 231.796V232.152H496.077L493.158 226.209V225.928H493.77L497.175 231.796Z" fill="#F1C0C0"/>
<path opacity="0.1" d="M497.175 231.796V232.152H496.077L493.158 226.209V225.928H493.77L497.175 231.796Z" fill="black"/>
<path opacity="0.1" d="M497.175 231.796V232.152H496.077L493.158 226.209V225.928L496.093 231.796H497.175Z" fill="black"/>
<path d="M493.541 237.753C493.543 237.77 493.542 237.787 493.54 237.804C493.538 237.82 493.533 237.836 493.527 237.85C493.521 237.863 493.513 237.875 493.504 237.883C493.494 237.892 493.484 237.897 493.474 237.899C493.403 237.938 493.328 237.976 493.278 238.065C493.228 238.153 493.218 238.316 493.278 238.388C493.308 238.418 493.344 238.434 493.38 238.433C493.495 238.446 493.615 238.444 493.72 238.364C493.795 238.308 493.865 238.212 493.948 238.22C493.99 238.225 494.036 238.257 494.073 238.225C494.111 238.194 494.122 238.106 494.122 238.033C494.123 237.88 494.109 237.728 494.08 237.582C494.077 237.562 493.915 237.547 493.895 237.54L493.699 237.499C493.662 237.491 493.581 237.446 493.552 237.496C493.523 237.547 493.541 237.693 493.541 237.753Z" fill="#6C63FF"/>
<path d="M494.713 236.721C494.721 236.795 494.735 236.868 494.753 236.938C494.78 237.051 494.815 237.17 494.882 237.225C494.942 237.274 495.017 237.256 495.078 237.21C495.104 237.192 495.127 237.164 495.144 237.129C495.164 237.072 495.173 237.008 495.169 236.943C495.169 236.783 495.164 236.617 495.118 236.475C495.08 236.35 495.012 236.243 495.011 236.106L494.779 236.179C494.767 236.181 494.755 236.188 494.745 236.201C494.738 236.213 494.733 236.229 494.73 236.246C494.706 236.401 494.7 236.562 494.713 236.721V236.721Z" fill="#6C63FF"/>
<path d="M491.942 232.786C491.932 232.92 491.936 233.063 491.979 233.178C492.022 233.293 492.112 233.369 492.19 233.323C492.194 233.321 492.198 233.318 492.201 233.314C492.204 233.31 492.207 233.305 492.209 233.299C492.211 233.285 492.21 233.271 492.206 233.258C492.172 233.109 492.174 232.944 492.214 232.798C492.219 232.779 492.23 232.756 492.242 232.764C492.247 232.768 492.251 232.774 492.253 232.783C492.266 232.817 492.272 232.857 492.271 232.897C492.268 232.933 492.267 232.97 492.269 233.007C492.274 233.042 492.297 233.076 492.318 233.061C492.324 233.055 492.329 233.047 492.333 233.038C492.337 233.029 492.34 233.018 492.341 233.007C492.398 232.74 492.372 232.448 492.346 232.169C492.346 232.162 492.346 232.156 492.344 232.15C492.343 232.144 492.34 232.138 492.338 232.134C492.335 232.13 492.331 232.126 492.327 232.124C492.324 232.122 492.32 232.122 492.316 232.123C492.196 232.103 492.13 232.056 492.061 232.238C492.002 232.391 491.942 232.602 491.942 232.786Z" fill="#6C63FF"/>
<path d="M493.347 232.107C493.312 232.348 493.276 232.592 493.273 232.84C493.274 232.994 493.281 233.148 493.295 233.301L493.321 233.659C493.331 233.78 493.34 233.901 493.353 234.02C493.361 234.082 493.365 234.145 493.366 234.208C493.364 234.27 493.357 234.332 493.348 234.392C493.332 234.519 493.323 234.648 493.321 234.777C493.318 234.984 493.334 235.191 493.344 235.398C493.364 235.811 493.361 236.226 493.335 236.637C493.325 236.749 493.34 236.862 493.377 236.957C493.392 236.987 493.405 237.02 493.414 237.055C493.433 237.15 493.388 237.245 493.377 237.342C493.37 237.418 493.381 237.496 493.409 237.558C493.437 237.62 493.479 237.661 493.525 237.673C493.729 237.713 493.938 237.695 494.122 237.847C494.141 237.755 494.099 237.65 494.118 237.557C494.131 237.499 494.164 237.461 494.187 237.412C494.218 237.338 494.233 237.249 494.231 237.16C494.232 237.043 494.219 236.926 494.193 236.817C494.172 236.726 494.141 236.636 494.142 236.538C494.142 236.49 494.153 236.44 494.141 236.396C494.133 236.37 494.121 236.347 494.108 236.329C494.032 236.193 493.985 236.021 493.975 235.838C493.965 235.657 493.968 235.474 493.985 235.294C493.998 235.123 494.015 234.942 494.082 234.808C494.051 234.402 494.069 233.991 494.136 233.597C494.142 233.56 494.153 233.518 494.175 233.509C494.185 233.508 494.194 233.51 494.202 233.515C494.211 233.521 494.218 233.53 494.224 233.541C494.264 233.602 494.283 233.69 494.301 233.774C494.32 233.866 494.339 233.964 494.325 234.057C494.319 234.099 494.306 234.135 494.299 234.175C494.284 234.255 494.287 234.341 494.307 234.418C494.317 234.446 494.323 234.477 494.325 234.509C494.323 234.537 494.318 234.564 494.31 234.589C494.301 234.638 494.298 234.69 494.301 234.741C494.305 234.792 494.315 234.841 494.331 234.885C494.364 234.973 494.404 235.053 494.45 235.122C494.428 235.281 494.434 235.447 494.467 235.601C494.469 235.608 494.471 235.615 494.471 235.623C494.472 235.631 494.471 235.639 494.47 235.647C494.465 235.663 494.454 235.668 494.444 235.68C494.419 235.714 494.435 235.778 494.452 235.822C494.499 235.944 494.55 236.06 494.606 236.171C494.657 236.27 494.653 236.461 494.729 236.496C494.761 236.507 494.794 236.507 494.826 236.496C494.9 236.478 494.984 236.442 495.021 236.335C495.036 236.29 495.042 236.237 495.065 236.203C495.089 236.17 495.119 236.165 495.132 236.125C495.145 236.085 495.13 236.033 495.135 235.987C495.139 235.941 495.164 235.904 495.172 235.856C495.191 235.744 495.11 235.652 495.099 235.538C495.084 235.372 495.212 235.248 495.207 235.082C495.195 234.722 495.188 234.361 495.177 234.001C495.162 233.679 495.16 233.355 495.171 233.032C495.18 232.831 495.196 232.621 495.151 232.434C495.086 232.171 494.906 232.023 494.732 231.995C494.558 231.967 494.384 232.034 494.212 232.078C493.926 232.149 493.635 232.159 493.347 232.107V232.107Z" fill="#3F3D56"/>
<path d="M493.864 228.149C494.089 228.149 494.272 227.852 494.272 227.485C494.272 227.119 494.089 226.822 493.864 226.822C493.639 226.822 493.456 227.119 493.456 227.485C493.456 227.852 493.639 228.149 493.864 228.149Z" fill="#FBBEBE"/>
<path d="M493.698 228.273C493.684 228.326 493.661 228.37 493.631 228.401C493.602 228.431 493.567 228.447 493.532 228.444C493.517 228.544 493.553 228.644 493.593 228.722C493.677 228.881 493.786 229.001 493.908 229.069C494.03 229.137 494.161 229.151 494.287 229.109C494.337 229.095 494.383 229.063 494.424 229.017C494.479 228.942 494.516 228.838 494.529 228.723C494.54 228.608 494.544 228.492 494.539 228.377C494.54 228.354 494.536 228.331 494.527 228.313C494.517 228.3 494.505 228.294 494.492 228.294C494.406 228.282 494.316 228.276 494.24 228.208C494.164 228.139 494.111 227.983 494.147 227.856C494.141 227.876 493.993 227.885 493.973 227.889C493.912 227.904 493.85 227.919 493.789 227.938C493.76 227.94 493.731 227.949 493.703 227.964C493.666 227.995 493.679 227.98 493.688 228.036C493.701 228.122 493.72 228.184 493.698 228.273Z" fill="#FBBEBE"/>
<path d="M494.009 228.676C493.954 228.677 493.899 228.667 493.846 228.646C493.792 228.626 493.744 228.574 493.712 228.501C493.693 228.455 493.681 228.396 493.651 228.37C493.601 228.329 493.545 228.399 493.506 228.463C493.47 228.526 493.429 228.58 493.383 228.624C493.329 228.67 493.265 228.687 493.214 228.742C493.173 228.791 493.139 228.852 493.112 228.921L492.751 229.72C492.606 230.041 492.48 230.386 492.351 230.725C492.239 231.019 492.18 231.357 492.096 231.674C492.089 231.693 492.087 231.715 492.088 231.738C492.091 231.759 492.107 231.776 492.118 231.764C492.08 231.825 492.114 231.93 492.105 232.016C492.095 232.076 492.074 232.13 492.044 232.17C492.1 232.158 492.157 232.163 492.212 232.183C492.269 232.209 492.323 232.251 492.371 232.307C492.402 232.299 492.399 232.21 492.422 232.177C492.436 232.158 492.456 232.16 492.475 232.155C492.543 232.133 492.57 232 492.622 231.925C492.665 231.863 492.727 231.842 492.773 231.784C492.848 231.688 492.864 231.518 492.903 231.376C492.937 231.257 492.989 231.152 493.018 231.03C493.037 230.95 493.047 230.864 493.074 230.791C493.117 230.672 493.199 230.61 493.278 230.553C493.327 230.517 493.379 230.48 493.433 230.485C493.43 230.678 493.415 230.868 493.441 231.056C493.45 231.122 493.462 231.186 493.473 231.252C493.521 231.549 493.533 231.858 493.535 232.163C493.652 232.12 493.772 232.096 493.892 232.094C493.986 232.089 494.08 232.109 494.175 232.106C494.287 232.103 494.398 232.068 494.51 232.055C494.622 232.043 494.739 232.055 494.838 232.138C494.83 231.876 494.835 231.612 494.852 231.351L494.879 230.94C494.885 230.82 494.896 230.701 494.913 230.584C494.927 230.49 494.949 230.399 494.965 230.305C495.022 229.973 495.012 229.62 495.001 229.275C494.995 229.098 494.953 228.923 494.904 228.766C494.886 228.707 494.866 228.651 494.843 228.597C494.783 228.463 494.704 228.356 494.611 228.286C494.519 228.215 494.418 228.184 494.317 228.195C494.304 228.196 494.291 228.2 494.279 228.208C494.257 228.231 494.241 228.263 494.231 228.301C494.178 228.455 494.102 228.584 494.009 228.676Z" fill="#3F3D56"/>
<path d="M493.506 227.704C493.517 227.663 493.548 227.648 493.567 227.615C493.603 227.552 493.587 227.451 493.592 227.366C493.601 227.242 493.665 227.138 493.737 227.094C493.811 227.055 493.89 227.047 493.967 227.07C494.003 227.074 494.039 227.094 494.07 227.126C494.083 227.142 494.095 227.162 494.108 227.176C494.131 227.199 494.158 227.206 494.184 227.196C494.21 227.186 494.232 227.16 494.246 227.124C494.156 226.947 494.056 226.761 493.919 226.707C493.872 226.691 493.825 226.684 493.777 226.685C493.713 226.683 493.648 226.681 493.589 226.721C493.509 226.774 493.453 226.897 493.425 227.029C493.399 227.164 493.386 227.303 493.385 227.444C493.379 227.537 493.379 227.631 493.385 227.725C493.394 227.853 493.424 227.975 493.47 228.08C493.476 228.096 493.485 228.11 493.495 228.119C493.611 228.201 493.496 227.739 493.506 227.704Z" fill="#3F3D56"/>
<path d="M494.233 227.022C494.219 226.827 494.134 226.666 494.043 226.536C493.969 226.424 493.882 226.339 493.787 226.286C493.691 226.24 493.58 226.25 493.498 226.343C493.432 226.418 493.39 226.537 493.357 226.657C493.315 226.799 493.294 226.955 493.296 227.113C493.302 227.269 493.349 227.428 493.433 227.507C493.463 227.435 493.515 227.398 493.565 227.368C493.784 227.233 494.007 227.118 494.233 227.022V227.022Z" fill="#FED253"/>
<path opacity="0.1" d="M493.461 226.94C493.469 226.94 493.474 226.954 493.478 226.965C493.499 227.018 493.517 227.073 493.531 227.131C493.502 227.141 493.45 227.153 493.436 227.11C493.428 227.089 493.437 226.938 493.461 226.94Z" fill="black"/>
<path opacity="0.1" d="M494.041 226.848C494.035 226.857 494.028 226.838 494.028 226.824V226.663C494.028 226.658 494.028 226.654 494.03 226.65C494.031 226.648 494.032 226.646 494.033 226.645C494.035 226.644 494.036 226.644 494.038 226.643C494.059 226.64 494.076 226.668 494.089 226.696C494.109 226.74 494.126 226.787 494.141 226.837L494.033 226.831" fill="black"/>
<path d="M495.386 229.508C495.409 229.472 495.434 229.438 495.461 229.408C495.531 229.331 495.616 229.301 495.696 229.252C495.775 229.203 495.855 229.124 495.886 228.996C495.902 228.916 495.907 228.831 495.901 228.748C495.902 228.713 495.898 228.678 495.89 228.645C495.88 228.617 495.866 228.592 495.849 228.574C495.742 228.445 495.598 228.434 495.464 228.448C495.17 228.477 494.882 228.594 494.613 228.793C494.599 228.801 494.587 228.815 494.578 228.834C494.573 228.852 494.57 228.872 494.571 228.892C494.566 229.014 494.576 229.137 494.6 229.253C494.635 229.4 494.707 229.519 494.737 229.669C494.751 229.737 494.756 229.808 494.768 229.876C494.778 229.946 494.803 230.008 494.839 230.049C494.94 230.147 495.035 230.016 495.105 229.914L495.386 229.508Z" fill="#3F3D56"/>
<path d="M494.068 230.082L493.939 229.624C493.92 229.56 493.904 229.495 493.89 229.428C493.875 229.348 493.868 229.265 493.854 229.185C493.809 228.917 493.695 228.695 493.639 228.432C493.635 228.409 493.628 228.387 493.618 228.369C493.61 228.36 493.601 228.353 493.591 228.351C493.581 228.348 493.571 228.348 493.561 228.353C493.483 228.374 493.422 228.471 493.351 228.526C493.318 228.55 493.282 228.567 493.249 228.596C493.233 228.608 493.218 228.627 493.206 228.65C493.194 228.672 493.186 228.699 493.181 228.728C493.173 228.791 493.192 228.852 493.209 228.914C493.278 229.168 493.294 229.452 493.297 229.73C493.299 229.917 493.293 230.118 493.225 230.269C493.095 230.558 493.178 230.984 493.227 231.335C493.233 231.376 493.24 231.421 493.244 231.465C493.248 231.52 493.25 231.575 493.25 231.63C493.25 231.816 493.243 232.008 493.196 232.177C493.243 232.218 493.295 232.242 493.348 232.247C493.496 232.278 493.645 232.299 493.794 232.312C493.841 232.319 493.888 232.315 493.934 232.3C493.988 232.276 494.036 232.223 494.071 232.15C494.105 232.076 494.123 231.986 494.122 231.894C494.13 232.009 494.145 232.134 494.196 232.213C494.247 232.293 494.322 232.305 494.392 232.311C494.588 232.328 494.785 232.319 494.98 232.284C494.992 232.283 495.005 232.278 495.016 232.27C495.054 232.24 495.056 232.155 495.053 232.087C495.047 231.96 495.041 231.833 495.032 231.707C495.024 231.626 495.02 231.545 495.02 231.463C495.024 231.379 495.032 231.296 495.045 231.215C495.079 230.956 495.106 230.693 495.095 230.428C495.09 230.363 495.089 230.299 495.09 230.234C495.097 230.088 495.144 229.948 495.135 229.803C495.11 229.376 495.089 228.937 495.016 228.525C495.002 228.451 494.986 228.372 494.946 228.33C494.895 228.274 494.824 228.303 494.765 228.268C494.738 228.247 494.712 228.222 494.688 228.193C494.635 228.139 494.574 228.109 494.512 228.105C494.465 228.102 494.413 228.119 494.385 228.181C494.372 228.215 494.363 228.254 494.359 228.294C494.322 228.546 494.279 228.796 494.236 229.046L494.194 229.285L494.083 229.928C494.072 229.996 494.079 230.017 494.068 230.082Z" fill="#6C63FF"/>
<path d="M494.719 227.575L497.183 231.784V232.141H496.085L494.233 228.212" fill="#F1C0C0"/>
<path opacity="0.1" d="M494.719 227.575L497.183 231.784V232.141H496.085L494.233 228.212" fill="black"/>
<path opacity="0.1" d="M494.272 228.156L494.28 228.161L496.1 231.783H497.183V232.14H496.085L494.233 228.212L494.272 228.156Z" fill="black"/>
<path d="M494.556 228.246C494.467 228.309 494.368 228.39 494.341 228.543C494.336 228.569 494.335 228.598 494.338 228.626C494.344 228.658 494.357 228.687 494.373 228.707C494.39 228.728 494.41 228.74 494.431 228.742C494.473 228.744 494.515 228.731 494.554 228.705L495.08 228.423C495.094 228.416 495.11 228.404 495.114 228.382C495.115 228.367 495.113 228.353 495.109 228.34C495.092 228.276 495.076 228.144 495.042 228.098C495.014 228.062 494.959 228.075 494.925 228.076C494.794 228.077 494.672 228.163 494.556 228.246Z" fill="#6C63FF"/>
<path d="M495.025 228.455C495.113 228.455 495.202 228.477 495.286 228.521C495.371 228.566 495.446 228.649 495.502 228.761C495.519 228.792 495.53 228.83 495.536 228.87C495.541 228.911 495.624 228.936 495.606 228.964C495.662 228.95 495.649 228.992 495.705 228.991C495.762 228.99 495.823 228.967 495.857 228.894C495.88 228.833 495.891 228.762 495.886 228.691C495.887 228.642 495.881 228.593 495.87 228.548C495.844 228.461 495.786 228.414 495.732 228.374L495.277 228.036C495.25 228.013 495.222 227.996 495.193 227.987C495.168 227.983 495.143 227.984 495.119 227.99L494.912 228.029C494.958 228.076 494.994 228.142 495.019 228.219C495.044 228.297 495.055 228.383 495.053 228.47" fill="#3F3D56"/>
</g>
<defs>
<clipPath id="clip0">
<rect width="559" height="350" fill="white"/>
</clipPath>
</defs>
</svg>